<svg xmlns="http://www.w3.org/2000/svg" version="1.1" xmlns:xlink="http://www.w3.org/1999/xlink" xmlns:svgjs="http://svgjs.dev/svgjs" width="1500" height="1500" viewBox="0 0 1500 1500"><rect width="1500" height="1500" fill="black"></rect><g transform="matrix(0.6666666666666666,0,0,0.6666666666666666,249.85778443113782,249.85778443113765)"><svg viewBox="0 0 334 334" data-background-color="#ffd7ea" preserveAspectRatio="xMidYMid meet" height="1500" width="1500" xmlns="http://www.w3.org/2000/svg" xmlns:xlink="http://www.w3.org/1999/xlink"><g id="tight-bounds" transform="matrix(1,0,0,1,0.04749999999998522,0.04750000000001364)"><svg viewBox="0 0 333.90454557049503 333.90454557049503" height="333.90454557049503" width="333.90454557049503"><g><svg></svg></g><g><svg viewBox="0 0 333.90454557049503 333.90454557049503" height="333.90454557049503" width="333.90454557049503"><g><path d="M0 166.952c0-92.205 74.747-166.952 166.952-166.952 92.205 0 166.952 74.747 166.953 166.952 0 92.205-74.747 166.952-166.953 166.953-92.205 0-166.952-74.747-166.952-166.953zM166.952 321.663c85.444 0 154.711-69.266 154.711-154.711 0-85.444-69.266-154.711-154.711-154.71-85.444 0-154.711 69.266-154.71 154.71 0 85.444 69.266 154.711 154.71 154.711z" data-fill-palette-color="tertiary" fill="#f70f03" stroke="transparent"></path><ellipse rx="160.27418187383762" ry="160.27418187383762" cx="166.95227278524752" cy="166.95227278524752" fill="#f70f03" stroke="transparent" stroke-width="0" fill-opacity="1" data-fill-palette-color="tertiary"></ellipse></g><g transform="matrix(1,0,0,1,147.67762189164003,71.17305217166896)"><svg viewBox="0 0 38.54930178721497 191.55844122715712" height="191.55844122715712" width="38.54930178721497"><g><svg viewBox="0 0 38.54930178721497 191.55844122715712" height="191.55844122715712" width="38.54930178721497"><g><svg viewBox="0 0 54.39950349788716 270.3209555157911" height="191.55844122715712" width="38.54930178721497"><g transform="matrix(1,0,0,1,0,78.76251428863401)"><svg viewBox="0 0 54.39950349788716 191.55844122715712" height="191.55844122715712" width="54.39950349788716"><g id="textblocktransform"><svg viewBox="0 0 54.39950349788716 191.55844122715712" height="191.55844122715712" width="54.39950349788716" id="textblock"><g><svg viewBox="0 0 54.39950349788716 191.55844122715712" height="191.55844122715712" width="54.39950349788716"><g transform="matrix(1,0,0,1,0,0)"><svg width="54.39950349788716" viewBox="0.3 -32.05 10.549999999999999 37.15" height="191.55844122715712" data-palette-color="#ffd7ea"><path d="M10.85-32.05L10.65-10.6 10.75-5.9Q10.75-2.1 8.85 0.38 6.95 2.85 2.25 5.1L2.25 5.1 0.7 2.85 0.7 2.35Q4.15 0.5 5.6-1.3 7.05-3.1 7.05-5.85L7.05-5.85 7.05-10.2 6.85-28.8 0.7-28.75 0.3-29.1 0.55-32.05 10.85-32.05Z" opacity="1" transform="matrix(1,0,0,1,0,0)" fill="#ffd7ea" class="wordmark-text-0" data-fill-palette-color="quaternary" id="text-0"></path></svg></g></svg></g></svg></g></svg></g><g transform="matrix(1,0,0,1,10.390305168096447,0)"><svg viewBox="0 0 33.61889316169427 33.540163717491666" height="33.540163717491666" width="33.61889316169427"><g><svg xmlns="http://www.w3.org/2000/svg" viewBox="3 3.0983564997397686 42 41.901643500260235" x="0" y="0" height="33.540163717491666" width="33.61889316169427" class="icon-icon-0" data-fill-palette-color="quaternary" id="icon-0"><g data-name="Layer 40" fill="#ffd7ea" data-fill-palette-color="quaternary"><path d="M44 18H40.87A17 17 0 0 0 7.13 18H4a1 1 0 0 0-1 1v6a1 1 0 0 0 1 1H7v2a17 17 0 0 0 34 0V26h3a1 1 0 0 0 1-1V19A1 1 0 0 0 44 18ZM5 24V20H7v4Zm34 4A15 15 0 0 1 9 28V20a15 15 0 0 1 30 0v8Zm4-4H41V20h2Z" fill="#ffd7ea" data-fill-palette-color="quaternary"></path><path d="M32 17a5 5 0 1 0 5 5A5 5 0 0 0 32 17Zm0 8a3 3 0 1 1 3-3A3 3 0 0 1 32 25Z" fill="#ffd7ea" data-fill-palette-color="quaternary"></path><path d="M16 17a5 5 0 1 0 5 5A5 5 0 0 0 16 17Zm0 8a3 3 0 1 1 3-3A3 3 0 0 1 16 25Z" fill="#ffd7ea" data-fill-palette-color="quaternary"></path><circle cx="27" cy="31" r="1.0" fill="#ffd7ea" data-fill-palette-color="quaternary"></circle><circle cx="27" cy="35" r="1.0" fill="#ffd7ea" data-fill-palette-color="quaternary"></circle><circle cx="27" cy="39" r="1.0" fill="#ffd7ea" data-fill-palette-color="quaternary"></circle><circle cx="21" cy="31" r="1.0" fill="#ffd7ea" data-fill-palette-color="quaternary"></circle><circle cx="21" cy="35" r="1.0" fill="#ffd7ea" data-fill-palette-color="quaternary"></circle><circle cx="21" cy="39" r="1.0" fill="#ffd7ea" data-fill-palette-color="quaternary"></circle><circle cx="27" cy="8" r="1.0" fill="#ffd7ea" data-fill-palette-color="quaternary"></circle><circle cx="27" cy="12" r="1.0" fill="#ffd7ea" data-fill-palette-color="quaternary"></circle><circle cx="27" cy="16" r="1.0" fill="#ffd7ea" data-fill-palette-color="quaternary"></circle><circle cx="21" cy="8" r="1.0" fill="#ffd7ea" data-fill-palette-color="quaternary"></circle><circle cx="21" cy="12" r="1.0" fill="#ffd7ea" data-fill-palette-color="quaternary"></circle><circle cx="21" cy="16" r="1.0" fill="#ffd7ea" data-fill-palette-color="quaternary"></circle></g></svg></g></svg></g><g></g></svg></g></svg></g></svg></g></svg></g><defs></defs></svg><rect width="333.90454557049503" height="333.90454557049503" fill="none" stroke="none" visibility="hidden"></rect></g></svg></g></svg>